<svg xmlns="http://www.w3.org/2000/svg" width="43.368" height="43.04" viewBox="0 0 43.368 43.04">
  <path id="Path_233" data-name="Path 233" d="M30.333,7.333V26.667A5.349,5.349,0,0,1,25,32H15.267a5.324,5.324,0,0,1-3.8-1.587L1,19.773s1.68-1.64,1.733-1.667a1.58,1.58,0,0,1,1.053-.387,1.629,1.629,0,0,1,.8.213c.053.013,5.747,3.28,5.747,3.28V5.333a2,2,0,0,1,4,0v9.333h1.333V2a2,2,0,1,1,4,0V14.667H21V3.333a2,2,0,1,1,4,0V14.667h1.333V7.333a2,2,0,0,1,4,0Z" transform="matrix(0.643, 0.766, -0.766, 0.643, 23.871, -0.766)" fill="#ebd0ce"/>
</svg>
